<?xml version="1.0" standalone="no"?>
<!DOCTYPE svg PUBLIC "-//W3C//DTD SVG 20010904//EN"
 "http://www.w3.org/TR/2001/REC-SVG-20010904/DTD/svg10.dtd">
<svg version="1.0" xmlns="http://www.w3.org/2000/svg"
 width="800.000000pt" height="800.000000pt" viewBox="0 0 800.000000 800.000000"
 preserveAspectRatio="xMidYMid meet">

<g transform="translate(0.000000,800.000000) scale(0.100000,-0.100000)"
fill="#000000" stroke="none">
<path d="M2004 6305 c-2 -5 -3 -1047 -2 -2315 l3 -2305 1998 -3 1997 -2 0
2315 c0 1273 -3 2315 -7 2315 -5 0 -903 1 -1997 3 -1319 1 -1990 -1 -1992 -8z
m3856 -2305 l0 -2180 -1860 0 -1860 0 0 2180 0 2180 1860 0 1860 0 0 -2180z"/>
<path d="M4475 5980 c-62 -10 -111 -38 -158 -90 -86 -95 -92 -240 -14 -341 40
-52 120 -98 184 -106 98 -11 211 44 263 129 l16 28 32 -45 c36 -52 118 -102
181 -111 95 -14 199 32 260 117 l30 40 15 -29 c36 -69 146 -132 231 -132 175
0 309 177 261 343 -35 122 -135 198 -258 199 -99 0 -172 -39 -235 -126 l-21
-30 -15 31 c-38 73 -134 124 -231 124 -97 0 -170 -39 -224 -118 l-23 -34 -28
38 c-38 52 -59 69 -111 91 -55 24 -102 30 -155 22z m88 -144 c103 -44 117
-180 24 -236 -85 -52 -197 9 -199 107 -1 78 51 135 130 142 7 0 27 -5 45 -13z
m524 -12 c33 -21 63 -73 63 -109 0 -68 -66 -135 -133 -135 -84 0 -149 87 -127
170 23 85 124 123 197 74z m499 1 c57 -37 78 -116 46 -174 -56 -102 -206 -86
-243 26 -37 113 96 214 197 148z"/>
<path d="M2212 5713 l3 -168 763 -3 762 -2 0 170 0 170 -765 0 -765 0 2 -167z
m1388 2 l0 -35 -625 0 -625 0 0 28 c0 16 3 32 7 35 3 4 285 7 625 7 l618 0 0
-35z"/>
<path d="M3850 5094 c-270 -35 -516 -126 -721 -269 -117 -81 -310 -278 -388
-394 -167 -252 -247 -499 -258 -796 -8 -245 25 -433 117 -653 250 -597 878
-978 1522 -922 683 59 1232 549 1375 1230 26 122 25 460 -1 580 -68 313 -200
557 -425 780 -229 228 -469 357 -781 421 -93 19 -361 33 -440 23z m358 -150
c453 -67 850 -366 1047 -788 101 -215 143 -448 124 -688 -26 -332 -167 -633
-406 -871 -197 -196 -429 -320 -706 -378 -145 -31 -389 -31 -534 0 -501 106
-899 462 -1051 941 -50 157 -65 278 -59 464 5 175 21 261 78 421 218 619 852
997 1507 899z"/>
<path d="M3865 4749 c-252 -37 -477 -151 -666 -339 -593 -587 -400 -1591 369
-1920 525 -224 1131 -44 1448 430 65 99 95 157 138 272 l25 68 -22 4 c-12 3
-46 7 -76 10 -159 16 -275 148 -274 311 1 85 32 153 99 214 59 54 113 76 211
87 l62 6 -29 79 c-154 417 -509 710 -940 775 -104 15 -251 17 -345 3z m352
-144 c146 -28 282 -84 408 -168 96 -64 242 -220 303 -322 28 -49 52 -93 52
-99 0 -6 -28 -24 -62 -40 -84 -39 -165 -121 -208 -211 -60 -124 -53 -293 18
-414 39 -67 114 -136 187 -172 36 -17 65 -37 65 -44 0 -20 -107 -184 -163
-248 -124 -144 -339 -274 -530 -322 -600 -150 -1198 251 -1288 864 -15 108 -6
290 20 396 100 404 436 715 850 785 80 13 265 11 348 -5z"/>
</g>
</svg>
